<?xml version="1.0" encoding="UTF-8" standalone="no"?><!DOCTYPE svg PUBLIC "-//W3C//DTD SVG 1.1//EN" "http://www.w3.org/Graphics/SVG/1.1/DTD/svg11.dtd"><svg width="100%" height="100%" viewBox="0 0 2000 2000" version="1.1" xmlns="http://www.w3.org/2000/svg" xmlns:xlink="http://www.w3.org/1999/xlink" xml:space="preserve" xmlns:serif="http://www.serif.com/" style="fill-rule:evenodd;clip-rule:evenodd;stroke-linecap:round;stroke-linejoin:round;stroke-miterlimit:1.5;"><g id="Dark-Boxes" serif:id="Dark Boxes"><path d="M1000,0l826.087,0c95.985,0 173.913,77.928 173.913,173.913l0,826.087l-1000,0l0,-1000Z" style="fill:#46281e;"/><path d="M1000,2000l-826.087,0c-95.985,0 -173.913,-77.928 -173.913,-173.913l0,-826.087l1000,0l0,1000Z" style="fill:#46281e;"/></g><g id="Light-Boxes" serif:id="Light Boxes"><path d="M2000,1000l0,826.087c0,95.985 -77.928,173.913 -173.913,173.913l-826.087,0l0,-1000l1000,0Z" style="fill:#c8a57b;"/><path d="M0,1000l0,-826.087c0,-95.985 77.928,-173.913 173.913,-173.913l826.087,0l0,1000l-1000,0Z" style="fill:#c8a57b;"/></g><path id="Drop" d="M1475.44,1044.71c0,0 324.129,426.678 324.129,609.54c0,178.891 -145.237,324.129 -324.129,324.129c-178.891,-0 -324.129,-145.238 -324.129,-324.129c0,-182.862 324.129,-609.54 324.129,-609.54Zm-58.948,241.805c-77.874,91.112 -160.671,179.073 -174.783,251.109c-6.538,33.376 15.251,65.782 48.628,72.321c33.376,6.538 65.782,-15.251 72.321,-48.628c14.112,-72.035 -12.36,-151.39 53.834,-274.802Zm129.172,573.499c-0,-0 52.682,-24.155 93.372,-67.238c53.984,-57.16 55.131,-137.572 55.131,-137.572c0.213,-16.193 -12.761,-29.513 -28.954,-29.726c-16.193,-0.213 -29.513,12.761 -29.726,28.954c-0,-0 -0.665,57.336 -39.117,98.049c-32.776,34.705 -75.187,54.197 -75.187,54.197c-14.719,6.756 -21.183,24.19 -14.428,38.908c6.756,14.719 24.19,21.184 38.909,14.428Z" style="fill:#45291d;"/><path id="Coffee-bean" serif:id="Coffee bean" d="M110.007,892.904c-1.114,0.637 -2.515,0.459 -3.435,-0.435c-1.161,-1.133 -2.034,-1.955 -3.144,-3.066c-160.52,-160.52 -116.294,-465.39 98.701,-680.385c188.82,-188.82 446.965,-245.921 615.762,-148.285c1.062,0.621 1.716,1.757 1.722,2.987c0.005,1.23 -0.641,2.371 -1.698,3.001c-113.819,68.167 -322.877,222.982 -364.448,459.418c-14.852,84.471 -76.714,160.642 -144.039,222.644c-74.608,68.709 -157.125,119.865 -199.421,144.121Zm759.835,-774.698c7.911,-4.402 17.811,-2.783 23.906,3.911c147.062,163.318 99.894,458.756 -109.935,668.585c-186.53,186.53 -440.712,244.517 -609.58,151.771c-0.91,-0.505 -1.483,-1.456 -1.503,-2.497c-0.021,-1.04 0.513,-2.013 1.402,-2.554c48.39,-29.551 118.691,-76.786 183.413,-136.391c78.857,-72.621 148.482,-163.652 165.878,-262.592c20.559,-116.928 87.924,-210.915 160.672,-281.997c67.035,-65.5 138.987,-111.75 185.747,-138.236Z" style="fill:#46281e;"/><g id="Timer"><circle cx="474.881" cy="1579.72" r="365.516" style="fill:none;stroke:#c8a57b;stroke-width:47.37px;"/><g id="Hand"><circle cx="473.248" cy="1579.28" r="43.656" style="fill:none;stroke:#c8a57b;stroke-width:37.02px;"/><path d="M667.001,1376.99l-140.196,211.63l-66.161,-63.781l206.357,-147.849Z" style="fill:#c8a57b;stroke:#c8a57b;stroke-width:1.97px;"/></g><g id="Big-Ticks" serif:id="Big Ticks"><path d="M785.217,1579.01c-0.011,11.073 -9.01,20.053 -20.083,20.041l-37.718,-0.039c-11.073,-0.012 -20.053,-9.011 -20.042,-20.084c0.012,-11.072 9.011,-20.053 20.084,-20.041l37.718,0.039c11.073,0.012 20.053,9.011 20.041,20.084Z" style="fill:#c8a57b;stroke:#c8a57b;stroke-width:2.17px;"/><path d="M474.247,1267.71c11.073,-0 20.062,8.99 20.062,20.062l0,37.718c0,11.073 -8.989,20.063 -20.062,20.063c-11.073,-0 -20.063,-8.99 -20.063,-20.063l0,-37.718c0,-11.072 8.99,-20.062 20.063,-20.062Z" style="fill:#c8a57b;stroke:#c8a57b;stroke-width:2.17px;"/><path d="M163.276,1578.68c0,-11.072 8.99,-20.062 20.063,-20.062l37.717,-0c11.073,-0 20.063,8.99 20.063,20.062c0,11.073 -8.99,20.063 -20.063,20.063l-37.717,0c-11.073,0 -20.063,-8.99 -20.063,-20.063Z" style="fill:#c8a57b;stroke:#c8a57b;stroke-width:2.17px;"/><path d="M474.247,1889.65c-11.073,0 -20.063,-8.99 -20.063,-20.062l0,-37.718c0,-11.073 8.99,-20.063 20.063,-20.063c11.073,0 20.062,8.99 20.062,20.063l0,37.718c0,11.072 -8.989,20.062 -20.062,20.062Z" style="fill:#c8a57b;stroke:#c8a57b;stroke-width:2.17px;"/></g><g id="Small-Ticks" serif:id="Small Ticks"><path d="M741.839,1737.1c-4.667,7.883 -14.856,10.494 -22.739,5.827l-38.418,-22.745c-7.883,-4.667 -10.494,-14.856 -5.827,-22.739c4.666,-7.883 14.855,-10.494 22.738,-5.827l38.419,22.745c7.883,4.667 10.494,14.856 5.827,22.739Z" style="fill:#c8a57b;stroke:#c8a57b;stroke-width:1.99px;"/><path d="M632.388,1310.92c7.888,4.659 10.509,14.845 5.851,22.732l-22.705,38.443c-4.658,7.888 -14.844,10.509 -22.732,5.851c-7.888,-4.659 -10.51,-14.845 -5.851,-22.733l22.704,-38.442c4.659,-7.888 14.845,-10.51 22.733,-5.851Z" style="fill:#c8a57b;stroke:#c8a57b;stroke-width:1.99px;"/><path d="M206.489,1420.54c4.659,-7.887 14.845,-10.509 22.733,-5.85l38.442,22.704c7.888,4.659 10.51,14.845 5.851,22.733c-4.659,7.888 -14.845,10.509 -22.733,5.851l-38.442,-22.705c-7.888,-4.659 -10.51,-14.845 -5.851,-22.733Z" style="fill:#c8a57b;stroke:#c8a57b;stroke-width:1.99px;"/><path d="M316.106,1846.44c-7.893,-4.661 -10.516,-14.853 -5.854,-22.745l22.694,-38.426c4.662,-7.893 14.854,-10.516 22.746,-5.855c7.892,4.662 10.515,14.854 5.854,22.746l-22.695,38.426c-4.661,7.892 -14.853,10.516 -22.745,5.854Z" style="fill:#c8a57b;stroke:#c8a57b;stroke-width:1.99px;"/><path d="M630.746,1847.43c-7.916,4.61 -18.086,1.927 -22.696,-5.989l-22.471,-38.58c-4.61,-7.916 -1.927,-18.086 5.989,-22.697c7.917,-4.61 18.087,-1.927 22.697,5.989l22.47,38.58c4.611,7.916 1.927,18.086 -5.989,22.697Z" style="fill:#c8a57b;stroke:#c8a57b;stroke-width:1.99px;"/><path d="M742.788,1421.93c4.619,7.911 1.946,18.084 -5.965,22.703l-38.556,22.51c-7.911,4.619 -18.084,1.946 -22.703,-5.965c-4.619,-7.911 -1.946,-18.084 5.965,-22.703l38.556,-22.511c7.912,-4.618 18.084,-1.945 22.703,5.966Z" style="fill:#c8a57b;stroke:#c8a57b;stroke-width:1.99px;"/><path d="M317.447,1310.17c7.911,-4.619 18.084,-1.946 22.703,5.965l22.511,38.556c4.618,7.911 1.945,18.084 -5.966,22.703c-7.911,4.619 -18.084,1.946 -22.703,-5.965l-22.51,-38.556c-4.619,-7.912 -1.946,-18.084 5.965,-22.703Z" style="fill:#c8a57b;stroke:#c8a57b;stroke-width:1.99px;"/><path d="M205.686,1735.51c-4.621,-7.916 -1.947,-18.094 5.969,-22.716l38.54,-22.501c7.915,-4.621 18.094,-1.947 22.716,5.969c4.621,7.915 1.947,18.094 -5.969,22.715l-38.54,22.502c-7.916,4.621 -18.094,1.947 -22.716,-5.969Z" style="fill:#c8a57b;stroke:#c8a57b;stroke-width:1.99px;"/></g><g id="Left-Dial" serif:id="Left Dial"><path d="M192.156,1204.86l66.414,66.414l-47.11,47.109l-66.413,-66.413l47.109,-47.11Z" style="fill:#c8a57b;stroke:#c8a57b;stroke-width:2.2px;"/><path d="M198.674,1155.79l25.241,25.24c6.965,6.966 6.965,18.276 -0,25.241l-78.99,78.99c-6.966,6.965 -18.275,6.965 -25.241,-0l-25.24,-25.241c-6.965,-6.965 -6.965,-18.275 -0,-25.24l78.99,-78.99c6.965,-6.965 18.275,-6.965 25.24,-0Z" style="fill:#c8a57b;stroke:#c8a57b;stroke-width:2.17px;"/></g><g id="Right-Dial" serif:id="Right Dial"><path d="M757.576,1204.86l-66.413,66.414l47.109,47.109l66.413,-66.413l-47.109,-47.11Z" style="fill:#c8a57b;stroke:#c8a57b;stroke-width:2.2px;"/><path d="M751.058,1155.79l-25.24,25.24c-6.966,6.966 -6.966,18.276 -0,25.241l78.99,78.99c6.965,6.965 18.275,6.965 25.24,-0l25.241,-25.241c6.965,-6.965 6.965,-18.275 -0,-25.24l-78.99,-78.99c-6.966,-6.965 -18.275,-6.965 -25.241,-0Z" style="fill:#c8a57b;stroke:#c8a57b;stroke-width:2.17px;"/></g><g id="Top-Dial" serif:id="Top Dial"><rect x="422.521" y="1114.99" width="101.034" height="93.923" style="fill:#c8a57b;stroke:#c8a57b;stroke-width:2.62px;"/><path d="M381.165,1068.35l-0,42.629c-0,11.764 9.551,21.315 21.314,21.315l141.755,-0c11.764,-0 21.314,-9.551 21.314,-21.315l0,-42.629c0,-11.764 -9.55,-21.314 -21.314,-21.314l-141.755,-0c-11.763,-0 -21.314,9.55 -21.314,21.314Z" style="fill:#c8a57b;stroke:#c8a57b;stroke-width:2.65px;"/></g></g><g id="Cup"><path d="M1125.11,382.176c-0,0 667.88,-0.811 681.659,-0.811c13.779,0 30.8,-8.105 36.474,29.99c-4.864,282.066 -129.686,391.488 -195.339,444.983c0,0 -163.728,0 -359.066,-0.81c-209.118,-141.033 -197.77,-407.699 -198.581,-440.931c-0.811,-33.232 34.853,-32.421 34.853,-32.421Zm33.186,72.708c-0.204,28.945 3.581,259.064 173.238,334.737c0.495,0.219 1.075,0.072 1.407,-0.355c0.331,-0.428 0.329,-1.026 -0.007,-1.451c-97.17,-124.314 -114.832,-309.298 -116.83,-334.639c-0.107,-1.628 -1.482,-2.879 -3.112,-2.834l-51.627,1.456c-1.682,0.047 -3.031,1.404 -3.069,3.086Z" style="fill:#c8a57b;"/><path d="M1818.63,499.612c-15.159,2.075 -29.152,-8.547 -31.227,-23.706c-2.076,-15.159 8.546,-29.151 23.705,-31.227c0,-0 64.219,-8.481 113.648,7.854c41.309,13.651 73.056,42.246 68.498,96.502c-8.312,98.919 -96.749,189.802 -260.899,205.219c-15.233,1.431 -28.763,-9.775 -30.193,-25.009c-1.431,-15.233 9.775,-28.763 25.009,-30.193c129.304,-12.145 204.285,-76.738 210.832,-154.659c1.917,-22.817 -13.272,-33.474 -30.644,-39.215c-38.575,-12.747 -88.729,-5.566 -88.729,-5.566Z" style="fill:#c8a57b;"/><path d="M1461.48,62.826c0,-0 -61.6,34.042 -61.6,89.159c-0,55.116 60.79,61.6 63.221,102.937c2.432,41.337 0.811,66.464 -8.105,77.001c-8.916,10.537 66.464,-25.127 68.895,-67.274c2.432,-42.148 -42.958,-83.485 -61.6,-111.854c-18.642,-28.369 -0.811,-89.969 -0.811,-89.969Z" style="fill:#c8a57b;"/><path d="M1023.79,892.002l887.534,-0c0,-0 1.622,17.831 -18.642,31.61c-20.263,13.779 -143.464,54.306 -143.464,54.306l-551.163,0c-0,0 -124.822,-19.453 -166.97,-60.79c-8.916,-12.968 -7.295,-25.126 -7.295,-25.126Z" style="fill:#c8a57b;"/></g></svg>